<?xml version="1.0" encoding="utf-8"?>
<!-- Generator: Adobe Illustrator 24.2.1, SVG Export Plug-In . SVG Version: 6.00 Build 0)  -->
<svg version="1.1" id="Layer_1" xmlns="http://www.w3.org/2000/svg" xmlns:xlink="http://www.w3.org/1999/xlink" x="0px" y="0px"
	 viewBox="0 0 64 64" style="enable-background:new 0 0 64 64;" xml:space="preserve">
<style type="text/css">
	.st0{fill:#FFFFFF;}
</style>
<path class="st0" d="M59.8,36.9c-0.3-0.4-0.7-0.6-1.1-0.6H5.3c-0.4,0-0.9,0.2-1.1,0.6c-0.3,0.4-0.4,0.8-0.2,1.2
	c2.4,9,9,16,17.4,19.2v3.5c0,1.8,1.4,3.2,3.2,3.2h15c1.8,0,3.2-1.4,3.2-3.2v-3.5c8.4-3.3,15-10.3,17.4-19.2
	C60.2,37.7,60.1,37.2,59.8,36.9z M39.8,60.8c0,0.2-0.2,0.3-0.3,0.3h-15c-0.2,0-0.3-0.1-0.3-0.3v-2.5c2.5,0.7,5.1,1.1,7.8,1.1
	s5.3-0.4,7.8-1.1V60.8z M32,56.5c-11.3,0-21.2-7-24.7-17.3h49.5C53.2,49.5,43.3,56.5,32,56.5z"/>
<path class="st0" d="M39.8,58.3v2.5c0,0.2-0.2,0.3-0.3,0.3h-15c-0.2,0-0.3-0.1-0.3-0.3v-2.5c2.5,0.7,5.1,1.1,7.8,1.1
	S37.3,59,39.8,58.3z"/>
<path class="st0" d="M56.7,39.2C53.2,49.5,43.3,56.5,32,56.5s-21.2-7-24.7-17.3H56.7z"/>
<path class="st0" d="M31,28.7l-9-15.4c-0.5-0.8-1.3-1.3-2.3-1.3c-0.9,0-1.8,0.5-2.3,1.3l-9,15.4c-0.5,0.9-0.5,1.9,0,2.8
	c0.5,0.8,1.3,1.3,2.3,1.3h18.1c1,0,1.8-0.5,2.3-1.3C31.5,30.6,31.5,29.6,31,28.7z M10.9,30l8.7-14.9L28.4,30H10.9z"/>
<path class="st0" d="M19.7,15.1L10.9,30h17.5L19.7,15.1z M19.7,17.6L19.7,17.6c0.8,0,1.4,0.6,1.4,1.4s-0.6,1.4-1.4,1.4
	s-1.4-0.6-1.4-1.4C18.3,18.3,18.9,17.6,19.7,17.6z M15.7,29.5c-0.8,0-1.4-0.6-1.4-1.4s0.6-1.4,1.4-1.4l0,0c0.8,0,1.4,0.6,1.4,1.4
	C17.1,28.8,16.5,29.5,15.7,29.5z M16.1,23.6c0-0.8,0.6-1.4,1.4-1.4l0,0c0.8,0,1.4,0.6,1.4,1.4S18.3,25,17.5,25
	C16.8,25,16.1,24.4,16.1,23.6z M19.7,29.7c-0.8,0-1.4-0.6-1.4-1.4s0.6-1.4,1.4-1.4l0,0c0.8,0,1.4,0.6,1.4,1.4S20.5,29.7,19.7,29.7z
	 M20.3,23.6c0-0.8,0.6-1.4,1.4-1.4l0,0c0.8,0,1.4,0.6,1.4,1.4S22.5,25,21.7,25C21,25,20.3,24.4,20.3,23.6z M23.7,29.5
	c-0.8,0-1.4-0.6-1.4-1.4s0.6-1.4,1.4-1.4l0,0c0.8,0,1.4,0.6,1.4,1.4S24.5,29.5,23.7,29.5z"/>
<path class="st0" d="M21.1,28.3c0,0.8-0.6,1.4-1.4,1.4s-1.4-0.6-1.4-1.4s0.6-1.4,1.4-1.4l0,0C20.5,26.9,21.1,27.5,21.1,28.3z
	 M21.1,19.1c0,0.8-0.6,1.4-1.4,1.4s-1.4-0.6-1.4-1.4s0.6-1.4,1.4-1.4l0,0C20.5,17.6,21.1,18.3,21.1,19.1z M23.2,23.6
	c0,0.8-0.6,1.4-1.4,1.4s-1.4-0.6-1.4-1.4s0.6-1.4,1.4-1.4l0,0C22.5,22.2,23.2,22.8,23.2,23.6z M25.1,28.1c0,0.8-0.6,1.4-1.4,1.4
	s-1.4-0.6-1.4-1.4s0.6-1.4,1.4-1.4l0,0C24.5,26.7,25.1,27.3,25.1,28.1z M17.1,28c0,0.8-0.6,1.4-1.4,1.4c-0.8,0-1.4-0.6-1.4-1.4
	s0.6-1.4,1.4-1.4l0,0C16.5,26.6,17.1,27.2,17.1,28z M19,23.6c0,0.8-0.6,1.4-1.4,1.4s-1.4-0.6-1.4-1.4s0.6-1.4,1.4-1.4l0,0
	C18.3,22.1,19,22.8,19,23.6z M55.9,31l-5-17.4c-0.3-0.9-1-1.6-1.9-1.8c-1-0.2-2,0.1-2.6,0.8L34,25.5c-0.7,0.7-0.9,1.7-0.6,2.6
	c0.3,0.9,1,1.6,1.9,1.8l17.3,4.5c0.2,0.1,0.4,0.1,0.7,0.1c0.7,0,1.5-0.3,2-0.8C55.9,32.9,56.2,32,55.9,31z M36.4,27.2l12-12.5
	l4.8,16.8L36.4,27.2z"/>
<path class="st0" d="M48.3,14.7l-12,12.5L53,31.5L48.3,14.7z M40.3,27.5c-0.8,0-1.4-0.6-1.4-1.4s0.6-1.4,1.4-1.4l0,0
	c0.8,0,1.4,0.6,1.4,1.4S41,27.5,40.3,27.5z M42.6,22.9c0-0.8,0.6-1.4,1.4-1.4l0,0c0.8,0,1.4,0.6,1.4,1.4s-0.6,1.4-1.4,1.4
	C43.2,24.3,42.6,23.7,42.6,22.9z M45.2,28.4c-0.8,0-1.4-0.6-1.4-1.4s0.6-1.4,1.4-1.4l0,0c0.8,0,1.4,0.6,1.4,1.4
	C46.6,27.7,46,28.4,45.2,28.4z M46.4,19.8c0-0.8,0.6-1.4,1.4-1.4l0,0c0.8,0,1.4,0.6,1.4,1.4s-0.6,1.4-1.4,1.4S46.4,20.6,46.4,19.8z
	 M47,23.6c0-0.8,0.6-1.4,1.4-1.4l0,0c0.8,0,1.4,0.6,1.4,1.4S49.2,25,48.4,25C47.6,25.1,47,24.4,47,23.6z M50,28.9
	c-0.8,0-1.4-0.6-1.4-1.4s0.6-1.4,1.4-1.4l0,0c0.8,0,1.4,0.6,1.4,1.4S50.8,28.9,50,28.9z"/>
<path class="st0" d="M41.7,26.1c0,0.8-0.6,1.4-1.4,1.4c-0.8,0-1.4-0.6-1.4-1.4s0.6-1.4,1.4-1.4l0,0C41,24.7,41.7,25.3,41.7,26.1z
	 M45.5,22.9c0,0.8-0.6,1.4-1.4,1.4c-0.8,0-1.4-0.6-1.4-1.4s0.6-1.4,1.4-1.4l0,0C44.8,21.5,45.5,22.1,45.5,22.9z M49.3,19.8
	c0,0.8-0.6,1.4-1.4,1.4s-1.4-0.6-1.4-1.4s0.6-1.4,1.4-1.4l0,0C48.6,18.4,49.3,19,49.3,19.8z M51.4,27.5c0,0.8-0.6,1.4-1.4,1.4
	c-0.8,0-1.4-0.6-1.4-1.4s0.6-1.4,1.4-1.4l0,0C50.8,26.1,51.4,26.7,51.4,27.5z M46.6,26.9c0,0.8-0.6,1.4-1.4,1.4
	c-0.8,0-1.4-0.6-1.4-1.4s0.6-1.4,1.4-1.4l0,0C46,25.5,46.6,26.1,46.6,26.9z M43.8,3c-0.4-0.9-1.2-1.4-2.2-1.5L23.5,0
	c-1-0.1-1.9,0.4-2.4,1.2S20.5,3,20.9,3.9L28.7,20c0.4,0.9,1.2,1.4,2.2,1.5c0.1,0,0.1,0,0.2,0c0.9,0,1.7-0.4,2.2-1.1L43.5,5.7
	C44.1,4.9,44.2,3.9,43.8,3z M31.1,18.5L23.6,2.9L41,4.3L31.1,18.5z"/>
<path class="st0" d="M23.6,2.9l7.5,15.6L41,4.3L23.6,2.9z M26.8,5.1c0-0.8,0.6-1.4,1.4-1.4l0,0c0.8,0,1.4,0.6,1.4,1.4
	S29,6.5,28.2,6.5C27.4,6.6,26.8,5.9,26.8,5.1z M28.3,9.8c0-0.8,0.6-1.4,1.4-1.4l0,0c0.8,0,1.4,0.6,1.4,1.4c0,0.8-0.6,1.4-1.4,1.4
	C29,11.2,28.3,10.6,28.3,9.8z M31.5,15.9c-0.8,0-1.4-0.6-1.4-1.4c0-0.8,0.6-1.4,1.4-1.4l0,0c0.8,0,1.4,0.6,1.4,1.4
	C32.9,15.2,32.3,15.9,31.5,15.9z M34,11.6c-0.8,0-1.4-0.6-1.4-1.4c0-0.8,0.6-1.4,1.4-1.4l0,0c0.8,0,1.4,0.6,1.4,1.4
	C35.4,10.9,34.8,11.6,34,11.6z M36.2,7.3c-0.8,0-1.4-0.6-1.4-1.4s0.6-1.4,1.4-1.4l0,0c0.8,0,1.4,0.6,1.4,1.4
	C37.6,6.6,37,7.3,36.2,7.3z"/>
<path class="st0" d="M32.9,14.5c0,0.8-0.6,1.4-1.4,1.4S30,15.2,30,14.5c0-0.8,0.6-1.4,1.4-1.4l0,0C32.3,13,32.9,13.7,32.9,14.5z
	 M31.2,9.8c0,0.8-0.6,1.4-1.4,1.4s-1.4-0.6-1.4-1.4c0-0.8,0.6-1.4,1.4-1.4l0,0C30.6,8.3,31.2,9,31.2,9.8z M29.7,5.1
	c0,0.8-0.6,1.4-1.4,1.4s-1.4-0.6-1.4-1.4s0.6-1.4,1.4-1.4l0,0C29,3.7,29.7,4.3,29.7,5.1z M37.6,5.8c0,0.8-0.6,1.4-1.4,1.4
	c-0.8,0-1.4-0.6-1.4-1.4s0.6-1.4,1.4-1.4l0,0C37,4.4,37.6,5,37.6,5.8z M35.4,10.1c0,0.8-0.6,1.4-1.4,1.4c-0.8,0-1.4-0.6-1.4-1.4
	c0-0.8,0.6-1.4,1.4-1.4l0,0C34.8,8.7,35.4,9.4,35.4,10.1z M49.9,23.6c0,0.8-0.6,1.4-1.4,1.4c-0.8,0-1.4-0.6-1.4-1.4s0.6-1.4,1.4-1.4
	l0,0C49.2,22.2,49.9,22.8,49.9,23.6z"/>
</svg>
