<?xml version="1.0" encoding="utf-8"?>
<!-- Generator: Adobe Illustrator 24.2.1, SVG Export Plug-In . SVG Version: 6.00 Build 0)  -->
<svg version="1.1" id="Layer_1" xmlns="http://www.w3.org/2000/svg" xmlns:xlink="http://www.w3.org/1999/xlink" x="0px" y="0px"
	 viewBox="0 0 91 91" style="enable-background:new 0 0 91 91;" xml:space="preserve">
<style type="text/css">
	.st0{fill:#FFFFFF;}
</style>
<path class="st0" d="M67.5,30.3h-0.2c-1.5-9.4-9.7-16.4-19.2-16.4c-1.8,0-3.5,0.2-5.1,0.7l-0.8-4.3c-0.9-5.1-5.6-6.6-7.8-6.5
	L20.9,3.2c-0.6-0.1-1.1,0.4-1.2,1.1c0,0.6,0.4,1.1,1.1,1.2c0,0,0,0,0,0l13.6,0.7c0,0,0.1,0,0.1,0c1.3-0.1,4.8,0.9,5.5,4.6l0.8,4.6
	c-6.3,2.5-10.9,8.2-11.9,15h-0.2c-1.2,0-2.2,1-2.2,2.2v6c0,1.2,1,2.2,2.2,2.2H29l3.4,30.1c0,0.1,0,0.1,0,0.2c0,0.2,0,0.3,0.1,0.5
	L34,85.9c0.1,1.1,1,1.9,2.1,1.9h23.6c1.1,0,2-0.8,2.1-1.9l5.1-45.3h0.4c1.2,0,2.2-1,2.2-2.2v-6C69.6,31.3,68.7,30.3,67.5,30.3z
	 M48.1,16.2c8.4,0,15.5,6,16.9,14.1H45.8l-2.4-13.5C44.9,16.4,46.5,16.2,48.1,16.2z M41.2,17.6l2.3,12.7H31.1
	C32.1,24.5,36,19.9,41.2,17.6z M61.5,69.8h-27l-2.3-20.9h31.3c0.2,0,0.3,0,0.4-0.1L61.5,69.8z M59.7,85.6H36.3L34.8,72h26.5
	C61.3,72,59.7,85.6,59.7,85.6z M67.4,38.3H66c-0.6,0-1.1,0.4-1.1,1l-0.8,7.6c-0.2-0.1-0.4-0.2-0.7-0.2H31.9c0,0,0,0,0,0l-0.7-6.1
	h31.1c0.6,0,1.1-0.5,1.1-1.1s-0.5-1.1-1.1-1.1H28.7v-5.8h38.7L67.4,38.3L67.4,38.3z M0,0"/>
</svg>
