<?xml version="1.0" encoding="utf-8"?>
<!-- Generator: Adobe Illustrator 24.2.1, SVG Export Plug-In . SVG Version: 6.00 Build 0)  -->
<svg version="1.1" id="Layer_1" xmlns="http://www.w3.org/2000/svg" xmlns:xlink="http://www.w3.org/1999/xlink" x="0px" y="0px"
	 viewBox="0 0 24 24" style="enable-background:new 0 0 24 24;" xml:space="preserve">
<style type="text/css">
	.st0{fill-rule:evenodd;clip-rule:evenodd;fill:#FFFFFF;}
</style>
<path class="st0" d="M3.5,11c0-0.3,0.2-0.5,0.5-0.5h16c0.3,0,0.5,0.2,0.5,0.5c0,2.7-1.2,5.1-3.2,6.6c-0.2,0.2-0.5,0.1-0.7-0.1
	c-0.2-0.2-0.1-0.5,0.1-0.7c1.6-1.3,2.7-3.2,2.8-5.4h-15c0.3,3.9,3.5,7,7.5,7c0.7,0,1.3-0.1,1.9-0.2c0.3-0.1,0.5,0.1,0.6,0.4
	c0.1,0.3-0.1,0.5-0.4,0.6c-0.7,0.2-1.4,0.3-2.1,0.3C7.3,19.5,3.5,15.7,3.5,11z"/>
<path class="st0" d="M12,18.5c0.3,0,0.5,0.2,0.5,0.5v2.5H15c0.3,0,0.5,0.2,0.5,0.5s-0.2,0.5-0.5,0.5H9c-0.3,0-0.5-0.2-0.5-0.5
	s0.2-0.5,0.5-0.5h2.5V19C11.5,18.7,11.7,18.5,12,18.5z M12,2.5c-1.3,0-2.6,0.6-3.6,1.7c-0.2,0.2-0.5,0.2-0.7,0
	C7.5,4,7.5,3.7,7.7,3.5c1.1-1.2,2.6-2,4.3-2c3.7,0,6.5,3.7,6.5,8c0,0.5,0,1.1-0.1,1.6c0,0.3-0.3,0.5-0.6,0.4c-0.3,0-0.5-0.3-0.4-0.6
	c0.1-0.5,0.1-0.9,0.1-1.4C17.5,5.5,14.9,2.5,12,2.5z M6.9,5.5c0.3,0.1,0.4,0.4,0.3,0.7c-0.4,1-0.6,2.1-0.6,3.3c0,0.5,0,1,0.1,1.4
	c0,0.3-0.1,0.5-0.4,0.6c-0.3,0-0.5-0.1-0.6-0.4c-0.1-0.5-0.1-1-0.1-1.6c0-1.3,0.3-2.6,0.7-3.7C6.3,5.6,6.6,5.4,6.9,5.5z"/>
</svg>
