<?xml version="1.0" encoding="utf-8"?>
<!-- Generator: Adobe Illustrator 24.2.1, SVG Export Plug-In . SVG Version: 6.00 Build 0)  -->
<svg version="1.1" id="Layer_1" xmlns="http://www.w3.org/2000/svg" xmlns:xlink="http://www.w3.org/1999/xlink" x="0px" y="0px"
	 viewBox="0 0 64 64" style="enable-background:new 0 0 64 64;" xml:space="preserve">
<style type="text/css">
	.st0{fill:#FFFFFF;}
</style>
<path class="st0" d="M48.8,18.1h-2.2c-0.3-4.2-2.4-8-5.5-10.5L43,1.9h5.8c0.5,0,1-0.4,1-1s-0.4-1-1-1h-6.5c-0.4,0-0.8,0.3-0.9,0.7
	l-2,5.8c-2.2-1.3-4.7-2-7.4-2c-7.7,0-14.1,6-14.6,13.6h-2.2c-0.5,0-1,0.4-1,1v5.7c0,0.5,0.4,1,1,1h0.6l3.7,35.6
	c0.2,1.5,1.4,2.7,3,2.7h19.2c1.5,0,2.8-1.1,3-2.7l3.7-35.6H49c0.5,0,1-0.4,1-1V19C49.8,18.5,49.3,18.1,48.8,18.1z M32,6.3
	c6.7,0,12.1,5.2,12.6,11.7H19.4C19.9,11.5,25.3,6.3,32,6.3z M16.2,20h31.7v3.8H16.2V20z M42.6,61.1c-0.1,0.5-0.5,0.9-1,0.9H22.4
	c-0.5,0-1-0.4-1-0.9l-3.7-35.4h28.6L42.6,61.1z"/>
<path class="st0" d="M32,54.1c5.6,0,10.2-4.6,10.2-10.2S37.6,33.7,32,33.7s-10.2,4.6-10.2,10.2S26.4,54.1,32,54.1z M32,35.6
	c4.5,0,8.2,3.7,8.2,8.2S36.5,52,32,52s-8.2-3.7-8.2-8.2S27.5,35.6,32,35.6z"/>
</svg>
