<?xml version="1.0" encoding="utf-8"?>
<!-- Generator: Adobe Illustrator 24.2.1, SVG Export Plug-In . SVG Version: 6.00 Build 0)  -->
<svg version="1.1" id="Layer_1" xmlns="http://www.w3.org/2000/svg" xmlns:xlink="http://www.w3.org/1999/xlink" x="0px" y="0px"
	 viewBox="0 0 64 64" style="enable-background:new 0 0 64 64;" xml:space="preserve">
<style type="text/css">
	.st0{fill:#FFFFFF;}
</style>
<path class="st0" d="M45,25c0-1.7-1.3-3-3-3s-3,1.3-3,3s1.3,3,3,3S45,26.7,45,25z M41,24h2v1h-2V24z M24.6,29.2
	C24.7,29.2,24.7,29.2,24.6,29.2c1.2,0.4,2.5,0.4,3.6,0L29,29c-1.2-0.9-2-2.4-2-4C27,26.8,26.1,28.3,24.6,29.2z M35,28.9l1.7,0.5
	c0.9,0.3,1.8,0.2,2.6-0.2C37.9,28.3,37,26.8,37,25C37,26.6,36.2,28,35,28.9z M35,25c0-1.7-1.3-3-3-3s-3,1.3-3,3s1.3,3,3,3
	S35,26.7,35,25z M31,25h2v1h-2V25z M25,25c0-1.7-1.3-3-3-3s-3,1.3-3,3s1.3,3,3,3S25,26.7,25,25z M21,24h2v1h-2V24z M40.3,31
	c-1.3,0.7-2.8,0.8-4.1,0.4l-3-0.9c-0.7-0.2-1.5-0.2-2.2,0l-1.9,0.7c-1.6,0.6-3.3,0.6-4.9,0c-1.1-0.4-2.4-0.4-3.5,0l-2.2,0.8
	c0.2,0.7,0.3,1,0.4,1.2l0,0c0.8,2.7,1.9,5.2,3.3,7.6c0,0.1,0.1,0.1,0.1,0.2l0.5-0.3c1.5-1,3.5-1.2,5.1-0.4c0.9,0.5,1.9,0.5,2.8,0
	l0.4-0.2c1.4-0.7,3.1-0.7,4.5,0c1,0.5,2.3,0.4,3.3-0.2l0.4-0.3c0.6-0.4,1.4-0.5,2.1-0.1l1.4,0.7c1.2-2.2,2.2-4.5,2.9-7l0.3-0.9
	L43.5,31C42.5,30.5,41.3,30.5,40.3,31z M42,60h-4c-2,0-3.4-2-4.2-3.6c-1-2.2-0.8-4.5-0.6-6.9c0.2-1.4,1.7-1.8,2.8-2.2
	c2.4-0.8,3.7-2.9,5.1-5.1c0.1-0.1,0.2-0.3,0.2-0.4l-1.3-0.6c0,0-0.1,0-0.1,0l-0.4,0.3c-1.6,1-3.6,1.2-5.3,0.3
	c-0.8-0.4-1.8-0.4-2.7,0L31.2,42c-1.4,0.7-3.1,0.7-4.5,0c-1.1-0.5-2.2-0.4-3.1,0.2L23,42.6c1,1.7,2,3.1,3.8,3.9l0.5,0.2
	c1.2,0.5,3.2,1.1,3.4,2.6c0.4,2.4,0.5,4.9-0.6,7.2C29.4,58,28,60,26,60h-4c-1.3,0-2.4,0.8-2.8,2h25.7C44.4,60.8,43.3,60,42,60z"/>
<path class="st0" d="M46.3,17c-0.8,0-1.2,0.3-1.7,0.8c-0.7,0.6-1.5,1.2-3,1.2s-2.4-0.7-3-1.2c-0.5-0.5-0.9-0.8-1.7-0.8
	s-1.2,0.3-1.7,0.8c-0.7,0.6-1.5,1.2-3,1.2c-1.6,0-2.4-0.7-3-1.2c-0.5-0.5-0.9-0.8-1.7-0.8c-0.8,0-1.2,0.3-1.7,0.8
	c-0.7,0.6-1.5,1.2-3,1.2c-0.3,0-0.6,0-0.9-0.1l-1-2.8c0.1,0,0.1,0.1,0.2,0.1c0.5,0.5,0.9,0.8,1.7,0.8c0.8,0,1.2-0.3,1.7-0.8
	c0.7-0.6,1.5-1.2,3-1.2c1.6,0,2.4,0.7,3,1.2c0.5,0.5,0.9,0.8,1.7,0.8c0.4,0,0.7-0.1,1-0.2s0.6-0.4,0.8-0.6c0.7-0.5,1.5-1,2.4-1.1
	c1.3-0.2,2.6,0.4,3.6,1.2c0.4,0.3,0.9,0.7,1.4,0.8c0.6,0.1,1.4,0,1.9-0.4c0.5-0.4,0.9-1,0.9-1.7c0-0.2,0-0.3,0-0.4
	c0.6,0.3,1.3,0.4,2.1,0.4c0.9,0,1.9-0.3,2.7-0.8c2.3-1.5,3-4.6,1.5-6.9C50,7,49.8,6.8,49.6,6.5c0.1-0.3,0.2-0.5,0.2-0.8
	c0.3-1.3,0-2.6-0.7-3.8l-1.7,1.1c0.4,0.7,0.6,1.5,0.4,2.3c0,0,0,0,0,0c-1.5-0.6-3.2-0.5-4.6,0.4c-1.3,0.8-2,2.2-2.2,3.6
	C40.5,9.1,39.8,9,39.1,9c-0.4-1.8-1.5-3.5-3.2-4.4C34.7,3.9,33.3,3.4,32,3c0,2.8-2.2,5-5,5c-2.4,0-4.4,1.7-4.9,4l-0.2,0
	c-0.9,0-1.8,0.3-2.5,0.7l-3.6-10L12,4.2l4.9,13c-0.4,0.1-0.7,0.3-1,0.5c-0.4,0.3-0.9,0.6-1.6,0.8c1.8,5.9,2.8,9.4,3.5,11.6l1.8-0.6
	C18,28.5,17,26.9,17,25c0-2.8,2.2-5,5-5s5,2.2,5,5c0-2.8,2.2-5,5-5s5,2.2,5,5c0-2.8,2.2-5,5-5s5,2.2,5,5c0,1.8-1,3.4-2.5,4.3
	l1.7,0.9l3.5-11.8c-0.7-0.2-1.2-0.5-1.6-0.8C47.5,17.3,47.1,17,46.3,17z"/>
</svg>
